# xmcd CD database file
#
# Track frame offsets:
#	182
#	15955
#	31255
#	47605
#	64992
#	83240
#	99332
#	115715
#	132192
#	148532
#	169232
#	183130
#
# Disc length: 2719 seconds
#
# Revision: 0
# Processed by: cddbd v1.4PL0 Copyright (c) Steve Scherf et al.
# Submitted via: CDex 1.50
#
DISCID=900a9d0c
DTITLE=Xandro Y Su Punto - Exclusivo
DYEAR=2001
DGENRE=Merengue
TTITLE0=Pa'Que Lo Bailen
TTITLE1=El Limon Y La Moto
TTITLE2=Esto Ta'Bomba
TTITLE3=Mala Mujer Gracias
TTITLE4=El Pinta Labios
TTITLE5=El Pavo
TTITLE6=Hoy La Vi Pasar
TTITLE7=Tocame El Pito
TTITLE8=Ten Cuidado
TTITLE9=Por Amarte Asi
TTITLE10=Todo El Mundo Encuero
TTITLE11=Comparte Un Perro - (Bahata mix)
EXTD=YEAR: 2001
EXTT0=
EXTT1=
EXTT2=
EXTT3=
EXTT4=
EXTT5=
EXTT6=
EXTT7=
EXTT8=
EXTT9=
EXTT10=
EXTT11=
PLAYORDER=
